<svg xmlns="http://www.w3.org/2000/svg" viewBox="0 0 512 512">
  <rect width="512" height="512" rx="112" fill="#0c111b"/>
  <rect x="78" y="72" width="356" height="368" rx="38" fill="#131a27" stroke="#2b3954" stroke-width="16"/>
  <rect x="116" y="108" width="280" height="292" rx="22" fill="#f1e8d4"/>
  <path d="M176 216c12-84 146-96 168-10 16 64-22 142-86 146-60 4-96-70-82-136z" fill="#d9aa82"/>
  <path d="M176 224c16-100 154-102 172-18-44-34-120-42-172 18z" fill="#2b1e1c"/>
  <path d="M204 266q28-20 56 0M276 266q28-20 56 0M232 324q34 25 76 0" fill="none" stroke="#142033" stroke-width="13" stroke-linecap="round"/>
  <path d="M138 386h236" stroke="#00e676" stroke-width="18" stroke-linecap="round"/>
  <path d="M348 112l42 42M330 130l42 42" stroke="#d0a44a" stroke-width="18" stroke-linecap="round"/>
</svg>
